<svg xmlns="http://www.w3.org/2000/svg" id="eAMJOgF4ve61" shape-rendering="geometricPrecision" style="background-color:#06021d" text-rendering="geometricPrecision" viewBox="0 0 640 480"><style>@keyframes eAMJOgF4ve62_s_do{0%{stroke-dashoffset:0}to{stroke-dashoffset:300}}@keyframes eAMJOgF4ve63_s_do{0%{stroke-dashoffset:0}to{stroke-dashoffset:360}}@keyframes eAMJOgF4ve64_s_do{0%{stroke-dashoffset:0}to{stroke-dashoffset:500}}@keyframes eAMJOgF4ve65_s_do{0%{stroke-dashoffset:0}to{stroke-dashoffset:360}}</style><defs><linearGradient id="eAMJOgF4ve62-stroke" x1="0" x2="1" y1=".5" y2=".5" gradientUnits="objectBoundingBox" spreadMethod="pad"><stop id="eAMJOgF4ve62-stroke-0" offset="0%" stop-color="#0036A4"/><stop id="eAMJOgF4ve62-stroke-1" offset="49%" stop-color="#6A2364"/><stop id="eAMJOgF4ve62-stroke-2" offset="100%" stop-color="#4CCEFF"/></linearGradient><linearGradient id="eAMJOgF4ve63-stroke" x1="0" x2="1" y1=".5" y2=".5" gradientUnits="objectBoundingBox" spreadMethod="pad"><stop id="eAMJOgF4ve63-stroke-0" offset="0%" stop-color="#FFF"/><stop id="eAMJOgF4ve63-stroke-1" offset="48%" stop-color="#359FAD"/><stop id="eAMJOgF4ve63-stroke-2" offset="100%" stop-color="#AFAC7A"/></linearGradient><linearGradient id="eAMJOgF4ve64-stroke" x1="0" x2="1" y1=".5" y2=".5" gradientUnits="objectBoundingBox" spreadMethod="pad"><stop id="eAMJOgF4ve64-stroke-0" offset="0%" stop-color="#AE3BD4"/><stop id="eAMJOgF4ve64-stroke-1" offset="48%" stop-color="#2BC4C3"/><stop id="eAMJOgF4ve64-stroke-2" offset="100%" stop-color="#FF00F6"/></linearGradient><linearGradient id="eAMJOgF4ve65-stroke" x1="0" x2="1" y1=".5" y2=".5" gradientUnits="objectBoundingBox" spreadMethod="pad"><stop id="eAMJOgF4ve65-stroke-0" offset="0%" stop-color="#FFF"/><stop id="eAMJOgF4ve65-stroke-1" offset="48%" stop-color="rgba(255,176,195,0.77)"/><stop id="eAMJOgF4ve65-stroke-2" offset="100%" stop-color="rgba(255,255,255,0.52)"/></linearGradient></defs><path fill="none" stroke="url(#eAMJOgF4ve62-stroke)" stroke-dasharray="0.01,300" stroke-linecap="round" stroke-miterlimit="1" stroke-width="40" d="M-28.184 236.782C-22.416 115.995 38.368 34.855 85.693 12.375 108.267 1.653 173.97-28.61 211.097 56.927c22.053 50.81 11.211 116.22-18.151 152.63-12.07 14.966-39.575 44.152-61.877 33-29.426-14.712-14.954-65.916-4.95-88.277 21.4-47.836 84.8-105.662 141.904-86.628 73.212 24.404-32.29 147.564 4.95 184.806 56.102 56.102 79.113-73.95 123.754-79.203 34.682-4.08 36.756 61.362 115.504 80.028C599.247 273.909 661.791 187.659 640 147.68c-43.62-80.028-127.465-44.041-159.12 0-56.2 78.192 5.787 188.644-85.803 255.758-57.42 42.076-143.1 14.146-202.131-37.127C94.894 281.147 16.936 270.28-54.963 480" opacity=".25" style="animation:eAMJOgF4ve62_s_do 12000ms linear infinite normal forwards"/><path fill="none" stroke="url(#eAMJOgF4ve63-stroke)" stroke-dasharray="0.01,72" stroke-linecap="round" stroke-miterlimit="1" stroke-width="4" d="M396.727-4.304c24.157-38.65 188.517-22.247 187.281 81.856-.447 37.679-60.564 63.236-59.402 109.729 1.65 66.002 46.985 92.086 37.127 128.704-5.562 20.657-63.315 69.908-78.378 50.326-14.903-19.373 12.458-25.257 25.576-22.275 39.467 8.97 34.845 58.196 9.9 79.202-16.766 14.12-36.14 21.294-57.752 22.276-11.341.515-25.566.01-33.826-9.075-12.966-14.263-9.995-41.671-14.025-59.402-7.952-34.989-50.116-60.254-84.153-50.327-44.488 12.976-46.306 94.773-18.15 122.93 13.66 13.659 39.087 11.05 45.376-9.076 1.807-5.781-2.705-12.555-4.95-17.326-13.372-28.416-29.983-50.405-63.527-52.801-29.45-2.104-63.293 4.455-91.578 12.375-40.898 11.451-105.259 58.97-146.03 22.276-27.258-24.533 11.341-82.555 35.477-96.528 28.634-16.578 64.024-4.234 94.878-7.426 46.427-4.802 137.29-57.328 141.904-108.078 2.478-27.261-23.814-44.129-47.851-48.676-59.301-11.22-123.463-2.206-181.506-23.101-34.203-12.313-17.912-60.098 10.293-73.417 83.47-39.417 175.728 15.119 250.415 44.54 29 11.425 122.104 0 69.11-108.242" style="animation:eAMJOgF4ve63_s_do 12000ms linear infinite normal forwards"/><path fill="none" stroke="url(#eAMJOgF4ve64-stroke)" stroke-dasharray="0.01,500" stroke-linecap="round" stroke-miterlimit="1" stroke-width="20" d="M-28.184 160.489c8.691-52.147 137.531-130.415 165.028-84.587 25.316 42.193-70.718 126.882-42.901 160.88 8.87 10.842 88.147-5.53 103.128-6.6 82.928-5.923 163.767 11.199 231.007 62.702 23.832 18.254 65.047 54.713 47.852 89.103-6.675 13.35-24.16 19.973-37.126 24.75-64.236 23.667-174.123 20.977-198.006-60.226-7.802-26.526-6.418-50.583 9.9-73.427 32.854-45.996 97.104-53.666 127.879-99.829 40.492-60.738-8.981-126.013-77.553-120.453-37.943 3.076-71.092 74.647-27.225 92.403 61.242 24.788 126.308-11.295 189.756 37.126 38.722 29.551 11.458 91.76 48.676 121.278 20.455 16.223 82.603 13.857 71.777 54.452-18.462 69.233-95.616 34.009-141.904 24.751-56.372-11.274-78.207-31.823-120.454-66.827-14.985-12.416-31.542-22.467-45.376-36.301-12.472-12.471-22.12-28.444-37.952-37.126-29.258-16.045-72.407-4.944-99.828 10.725-95.203 54.402-48.86 117.276 35.476 136.954 46.782 10.916 127.054 41.748 182.331 134.444" opacity=".2" style="animation:eAMJOgF4ve64_s_do 12000ms linear infinite normal forwards"/><path fill="none" stroke="url(#eAMJOgF4ve65-stroke)" stroke-dasharray="0.01,72" stroke-linecap="round" stroke-miterlimit="1" stroke-width="2" d="M-48.371 173.255c73.012 0 80.904-57.484 83.737-75.902 3.268-21.238-1.14-62.658 14.026-79.202 6.448-7.036 9.055-5.362 18.975-5.776 39.196-1.633 66.933 48.52 70.952 81.678 1.498 12.354-5.833 66.002 21.597 77.552 44.097 18.57 126.14-52.075 144.234 28.051 14.902 65.995-121.228 92.68-169.13 101.478-40.427 7.426-63.657 53.85-40.427 94.878 22.889 40.427 84.978 33.501 121.764 9.076 29.169-19.367 62.772-48.375 63.042-47.027 2.211 11.057-60.382 90.227-28.876 96.528 24.151 4.83 63.663-54.287 71.777-67.652 36.656-60.374 45.174-128.615 71.777-192.23 8.477-20.272 25.655-64.979 51.152-71.778 34.853-9.294 41.678 32.847 44.551 57.752 2.187 18.953 3.114 39.546 1.65 58.576-2.564 33.338-35.919 132.263-5.775 156.755 11.138 9.05 26.078 9.414 39.601 7.426 58.268-8.57 35.68-83.826 63.527-119.63 9.534-12.257 63.67-37.705 63.04 24.752" style="animation:eAMJOgF4ve65_s_do 12000ms linear infinite normal forwards"/><script/></svg>